<svg version="1.1" id="Layer_1" xmlns="http://www.w3.org/2000/svg" xmlns:xlink="http://www.w3.org/1999/xlink" x="0px"
     y="0px" viewBox="0 0 512 512" style="enable-background:new 0 0 512 512;" xml:space="preserve"><g><g>
    <path fill="white"
          d="M494.594,431.761h-9.031V241.8c0-9.613-7.793-17.406-17.406-17.406h-84.881c-9.613,0-17.406,7.793-17.406,17.406v189.961 h-28.492V136.204c0-9.613-7.793-17.406-17.406-17.406H235.09c-9.613,0-17.406,7.793-17.406,17.406V431.76h-28.491V235.038 c0-9.613-7.793-17.406-17.406-17.406H86.904c-9.613,0-17.406,7.793-17.406,17.406V431.76H34.812V62.833 c0-9.613-7.793-17.406-17.406-17.406C7.793,45.427,0,53.22,0,62.833v386.334c0,9.613,7.793,17.406,17.406,17.406h477.188 c9.613,0,17.406-7.793,17.406-17.406C512,439.554,504.207,431.761,494.594,431.761z M154.38,431.76h-50.07V252.444h50.07V431.76z M302.565,431.76h-50.07V153.61h50.07V431.76z M450.75,431.761h-50.069V259.206h50.069V431.761z"></path></g></g></svg>
