<svg id="Layer_2" viewBox="0 0 64 64" xmlns="http://www.w3.org/2000/svg" data-name="Layer 2">
    <path fill="#fff" d="m59.774 23.889-5.184-9.968a2 2 0 0 0 -2.7-.852l-2.79 1.452a6.462 6.462 0 0 1 -6.29-.2l-.114-.07a6.435 6.435 0 0 1 -3.081-5.486v-2.982a2 2 0 0 0 -2-2h-11.233a2 2 0 0 0 -2 2v4.022a4.712 4.712 0 0 1 -7.165 3.972l-3.651-2.277a2 2 0 0 0 -2.756.635l-5.955 9.524a2 2 0 0 0 .636 2.756l3.709 2.316a4.978 4.978 0 0 1 2.33 4.4v.1a4.961 4.961 0 0 1 -2.671 4.22l-3.782 1.962a2 2 0 0 0 -.851 2.7l5.184 9.966a2 2 0 0 0 2.7.852l2.79-1.452a6.48 6.48 0 0 1 6.314.217l.091.056a6.435 6.435 0 0 1 3.081 5.486v2.979a2 2 0 0 0 2 2h11.232a2 2 0 0 0 2-2v-4.017a4.711 4.711 0 0 1 7.166-3.971l3.651 2.281a2 2 0 0 0 2.755-.637l5.955-9.527a2 2 0 0 0 -.636-2.756l-3.7-2.315a4.98 4.98 0 0 1 -2.331-4.4v-.1a4.962 4.962 0 0 1 2.671-4.22l3.775-1.963a2 2 0 0 0 .851-2.7zm-6.474 1.111a8.969 8.969 0 0 0 -4.824 7.641v.086a8.995 8.995 0 0 0 4.208 7.935l2.008 1.255-3.834 6.136-1.958-1.221a8.711 8.711 0 0 0 -13.282 7.368v2.022h-7.236v-.979a10.524 10.524 0 0 0 -15.33-9.307l-1.016.528-3.336-6.425 2-1.039a8.97 8.97 0 0 0 4.824-7.641v-.086a8.992 8.992 0 0 0 -4.208-7.934l-2.008-1.256 3.834-6.135 1.958 1.221a8.711 8.711 0 0 0 13.282-7.364v-2.022h7.236v.979a10.525 10.525 0 0 0 15.33 9.307l1.016-.528 3.336 6.419z"></path>
    <path fill="#fff" d="m32 22a10 10 0 1 0 10 10 10.011 10.011 0 0 0 -10-10zm0 16a6 6 0 1 1 6-6 6.006 6.006 0 0 1 -6 6z"></path>
</svg>
