<!-- icon666.com - MILLIONS vector ICONS FREE --><svg viewBox="-53 0 429 429" xmlns="http://www.w3.org/2000/svg"><path d="m30 124.199219v271.800781c.019531 18.21875 14.78125 32.980469 33 33h197.5c18.21875-.019531 32.980469-14.78125 33-33v-271.800781c.003906-.921875.171875-1.835938.5-2.699219h-264.601562c.410156.839844.617187 1.765625.601562 2.699219zm188.699219 124.300781c0-3.867188 3.136719-7 7-7 3.867187 0 7 3.132812 7 7v122c0 3.867188-3.132813 7-7 7-3.863281 0-7-3.132812-7-7zm-64 0c0-3.867188 3.136719-7 7-7 3.867187 0 7 3.132812 7 7v122c0 3.867188-3.132813 7-7 7-3.863281 0-7-3.132812-7-7zm-64 0c0-3.867188 3.136719-7 7-7 3.867187 0 7 3.132812 7 7v122c0 3.867188-3.132813 7-7 7-3.863281 0-7-3.132812-7-7zm0 0"></path><path d="m221 5.101562c-.011719-2.8125-2.289062-5.0898432-5.101562-5.101562h-108.5c-2.808594.0117188-5.085938 2.289062-5.097657 5.101562v32.199219h118.699219zm0 0"></path><path d="m295.300781 51.199219h-267.199219c-15.519531 0-28.101562 12.582031-28.101562 28.101562s12.582031 28.097657 28.101562 28.097657h267.199219c15.519531 0 28.097657-12.578126 28.097657-28.097657s-12.578126-28.101562-28.097657-28.101562zm0 0"></path></svg>